<svg width="210" height="37" viewBox="0 0 210 37" fill="none" xmlns="http://www.w3.org/2000/svg">
<g clip-path="url(#clip0_1_324)">
<mask id="mask0_1_324" style="mask-type:luminance" maskUnits="userSpaceOnUse" x="18" y="0" width="45" height="29">
<path d="M18.7529 0.0151558H62.5155V28.4527H18.7529V0.0151558Z" fill="white"/>
</mask>
<g mask="url(#mask0_1_324)">
<path fill-rule="evenodd" clip-rule="evenodd" d="M57.7035 0.13893C57.7035 0.13893 55.511 2.93267 53.0582 3.81171C50.6055 4.68822 48.5822 4.94587 48.5822 4.94587L49.0141 5.82997C49.0141 5.82997 46.8645 6.757 43.4671 4.53919C40.0696 2.31885 36.0609 0.520353 34.7524 0.111144C33.4465 -0.295539 30.7968 0.671912 28.7153 1.19226C26.6339 1.71514 23.0622 1.83386 22.557 2.85941C22.0518 3.88496 20.6827 6.94898 19.69 8.58076C18.6973 10.2125 18.7226 11.5336 21.5163 11.6372C24.3075 11.7382 25.0325 10.5889 25.8206 9.68967C26.6087 8.79294 27.2755 8.27512 27.1619 7.72698C27.0507 7.17631 26.6794 6.3579 26.6794 6.3579C26.6794 6.3579 27.5079 7.48701 28.1268 7.58805C28.7482 7.68909 31.0241 7.09801 31.1024 6.82268C31.1807 6.54482 31.4106 5.61273 31.4106 5.61273C31.4106 5.61273 31.302 6.71406 31.8602 7.21673C32.4184 7.71688 33.8532 8.25743 34.5327 8.50246C35.2096 8.74748 35.2147 9.47748 37.1597 11.569C39.1047 13.6605 45.5813 16.7624 48.2892 16.8331C46.9757 16.9342 45.1721 16.6866 43.5833 16.3532C43.5833 16.3532 45.8188 18.7832 46.6953 19.7052C47.5718 20.6246 51.1713 24.161 52.5606 24.406C52.7147 24.3681 53.9903 23.2213 53.9903 23.2213C53.9903 23.2213 53.038 18.8792 52.3611 16.3734C51.6866 13.8651 50.3807 9.43707 50.3807 9.43707C50.3807 9.43707 53.8792 19.205 54.7203 22.2741C55.5615 25.3432 55.6373 28.1925 56.8295 27.7732C58.0193 27.3513 61.8007 23.2794 61.8007 23.2794C61.8007 23.2794 62.8792 19.2076 62.076 11.8847C61.2752 4.5594 57.706 0.13893 57.706 0.13893H57.7035Z" fill="#1F4037"/>
</g>
<mask id="mask1_1_324" style="mask-type:luminance" maskUnits="userSpaceOnUse" x="0" y="0" width="53" height="37">
<path d="M-7.62939e-06 0.646652H52.3787V36.844H-7.62939e-06V0.646652Z" fill="white"/>
</mask>
<g mask="url(#mask1_1_324)">
<path fill-rule="evenodd" clip-rule="evenodd" d="M4.21081 1.15437C4.21081 1.15437 6.44125 4.17545 10.7076 4.48614C14.9765 4.79179 15.3074 4.80189 15.3074 4.80189L15.07 5.84512C15.07 5.84512 19.9451 3.81928 21.0869 3.91275C21.0869 3.91275 20.0184 6.62565 18.7756 8.51003C18.1163 9.50527 17.5379 11.5286 19.8668 12.2434C20.5564 12.4556 21.6098 12.6577 22.7414 12.5112C24.2519 12.3167 25.3381 11.516 26.2121 10.6369C27.2503 9.59368 27.9601 8.66917 27.9601 8.66917C27.9601 8.66917 29.8495 8.56055 30.9104 8.00231C30.9104 8.00231 33.4061 9.33098 34.3938 9.54568C34.3938 9.54568 36.7909 13.7338 42.4264 16.0728C42.4264 16.0728 46.5134 21.1829 51.7927 25.2396C51.7927 25.2396 50.3706 28.1091 46.9151 26.1894C46.9151 26.1894 40.9032 20.7307 39.7488 19.7203C39.7488 19.7203 45.0989 26.2727 46.6119 27.2301C48.1275 28.1874 49.3678 28.6876 49.3678 28.6876C49.3678 28.6876 47.2586 31.9688 43.7071 30.5492C41.1634 28.9301 38.7789 26.7047 36.4449 24.2823C36.4449 24.2823 39.327 28.2885 40.7213 29.9152C42.1182 31.5419 43.2246 32.0901 43.5025 32.4765C43.7828 32.8605 39.4356 34.8181 37.3769 32.9994C35.3157 31.1832 32.1557 27.6342 32.1557 27.6342C32.1557 27.6342 35.341 32.6887 36.3691 33.8987C37.3946 35.1061 35.5027 36.3236 34.2574 36.311C33.0095 36.2958 32.5372 36.1569 31.6076 35.144C31.0292 34.515 30.3977 33.9517 30.0642 33.5071C29.8546 33.2293 29.8318 32.7468 29.8495 32.3982C29.8748 31.8905 29.8975 31.1403 29.8268 30.7665C29.5035 29.4353 28.0434 28.824 27.4069 28.829C27.4069 28.829 28.296 27.5307 27.4271 25.8357C26.9118 24.8279 25.2573 24.3732 25.2573 24.3732C25.2573 24.3732 25.8256 22.1251 24.2191 20.9505C23.282 20.266 21.5188 20.5893 21.5188 20.5893C21.5188 20.5893 20.1093 22.1529 19.5006 22.7263C19.5006 22.7263 18.9777 21.2789 17.9774 20.7156C17.2272 20.2937 16.0223 20.1902 16.0223 20.1902C16.0223 20.1902 15.0852 20.9 14.2971 21.779C12.3975 23.8933 12.3091 25.2775 12.3041 26.8967L8.61612 25.4998C8.61612 25.4998 9.22741 22.1377 12.3394 13.3498C12.3394 13.3498 8.65654 20.4579 7.58805 27.3993C7.52995 27.7833 7.10558 27.9904 6.76458 27.7984C5.46875 27.0659 2.69269 25.3684 0.889143 23.2997C0.889143 23.2997 -2.44768 12.3975 4.21081 1.15437Z" fill="#88C0B1"/>
</g>
<mask id="mask2_1_324" style="mask-type:luminance" maskUnits="userSpaceOnUse" x="25" y="29" width="7" height="8">
<path d="M25.2194 29.746H31.6859V36.844H25.2194V29.746Z" fill="white"/>
</mask>
<g mask="url(#mask2_1_324)">
<path fill-rule="evenodd" clip-rule="evenodd" d="M31.4485 36.3994C31.4485 36.3994 29.1296 34.6034 28.8745 33.1131C28.6926 32.0572 29.2205 31.3575 28.6143 30.5366C28.0106 29.7131 27.0735 29.9935 26.8562 29.9758C26.8562 29.9758 24.987 31.1201 25.5175 33.5779C26.0479 36.0382 27.3336 36.7732 28.0106 36.7985C28.685 36.8212 30.9155 36.6772 31.4485 36.4019V36.3994Z" fill="#1F4037"/>
</g>
<path fill-rule="evenodd" clip-rule="evenodd" d="M25.1285 35.2955C25.1285 35.2955 23.9615 34.0477 24.8178 30.8751C25.2143 29.4075 26.9497 28.6168 26.8259 27.0608C26.8259 27.0608 26.4723 25.1739 24.747 25.5478C24.747 25.5478 24.1256 26.2702 23.2996 27.2705C22.7111 27.9803 21.9659 28.8139 21.7335 29.8318C21.2258 32.0547 21.337 33.9492 21.8649 34.371C23.1051 35.3536 24.5298 35.2905 25.1285 35.2955Z" fill="#1F4037"/>
<path fill-rule="evenodd" clip-rule="evenodd" d="M20.4529 33.2116C20.4529 33.2116 20.2129 30.9029 21.0263 29.0261C21.731 27.4019 24.4187 25.2396 24.401 23.4841C24.401 23.4841 24.3656 20.8141 21.7386 21.7967C21.7386 21.7967 21.0439 22.6606 20.1144 23.8528C19.4551 24.699 17.9774 26.2247 17.6642 27.3943C16.9771 29.9531 17.6313 30.7791 18.1264 31.5621C18.9777 32.9085 19.9704 32.9666 20.4529 33.2116Z" fill="#1F4037"/>
<path fill-rule="evenodd" clip-rule="evenodd" d="M16.3204 29.0665C16.3204 29.0665 16.2218 27.5206 16.8508 26.1439C17.4242 24.8961 18.5281 24.2494 18.3967 22.9107C18.3967 22.9107 18.3386 21.4077 16.3204 21.2309C16.3204 21.2309 15.5449 21.7714 15.0776 22.3246C14.7037 22.7692 12.2081 25.9974 13.8777 27.8565C14.3299 28.3592 15.7242 29.0058 16.3204 29.0639V29.0665Z" fill="#1F4037"/>
<path d="M76.9322 14.1793C76.2906 14.1793 75.7021 14.3561 75.164 14.7047C74.631 15.0482 74.2042 15.508 73.8808 16.0788C73.5626 16.6447 73.4059 17.2711 73.4059 17.9582C73.4059 18.6402 73.5626 19.2691 73.8808 19.8476C74.2042 20.421 74.631 20.8782 75.164 21.2217C75.7021 21.5653 76.2906 21.737 76.9322 21.737C77.3212 21.737 77.7329 21.6815 78.1649 21.5653C78.6019 21.4516 79.006 21.2369 79.3774 20.9186C79.7537 20.5953 80.0493 20.1305 80.2665 19.5243H77.1848V17.5136H83.1461V17.9279C83.1461 18.7842 82.9845 19.5899 82.6611 20.3427C82.3429 21.0904 81.8983 21.7547 81.3274 22.3332C80.7616 22.9066 80.1048 23.3537 79.3572 23.677C78.6095 24.0003 77.8011 24.162 76.9322 24.162C76.0759 24.162 75.2701 24.0003 74.5174 23.677C73.7621 23.3486 73.0978 22.8965 72.5269 22.3231C71.9611 21.7522 71.5115 21.0904 71.1831 20.3427C70.8598 19.5899 70.6981 18.7842 70.6981 17.9279C70.6981 17.0741 70.8598 16.2683 71.1831 15.513C71.5115 14.7603 71.9611 14.0959 72.5269 13.5225C73.0978 12.9517 73.7621 12.502 74.5174 12.1787C75.2701 11.8554 76.0759 11.6937 76.9322 11.6937C77.8214 11.6937 78.6625 11.8756 79.4582 12.2393C80.2589 12.598 80.9561 13.0956 81.5497 13.7347C82.1408 14.3687 82.5753 15.1063 82.8531 15.9475H79.9129C79.6148 15.3084 79.1904 14.8537 78.6398 14.5835C78.0942 14.3157 77.5233 14.1793 76.9322 14.1793Z" fill="#1F4037"/>
<path d="M91.8612 19.1201H87.6883V23.9801H85.0208V11.8655H92.033V14.2904H87.6883V16.6952H91.8612V19.1201Z" fill="#1F4037"/>
<path d="M98.8733 22.0907C99.1613 22.0907 99.472 22.0477 99.8029 21.9593C100.131 21.8734 100.419 21.7244 100.662 21.5147C100.909 21.3076 101.036 21.0247 101.036 20.666C101.036 20.3376 100.907 20.0699 100.652 19.8678C100.394 19.6657 100.058 19.5015 99.6412 19.3727C99.2219 19.2388 98.7672 19.1151 98.2772 18.9989C97.7846 18.8852 97.2895 18.7513 96.7919 18.5947C96.2917 18.433 95.8345 18.2209 95.4178 17.9582C94.9984 17.6955 94.6625 17.3595 94.4074 16.9478C94.1573 16.531 94.0335 16.0031 94.0335 15.3615C94.0335 14.73 94.1598 14.1869 94.4175 13.7347C94.6802 13.2775 95.0262 12.8961 95.4582 12.593C95.8952 12.2899 96.3827 12.065 96.9232 11.916C97.4613 11.7695 98.0044 11.6937 98.55 11.6937C99.3835 11.6937 100.162 11.8251 100.884 12.0878C101.611 12.3454 102.203 12.7546 102.662 13.3205C103.119 13.8863 103.359 14.6314 103.38 15.5534H100.803C100.727 14.927 100.505 14.4925 100.136 14.25C99.7725 14.0025 99.2572 13.8762 98.5904 13.8762C98.3403 13.8762 98.0751 13.9216 97.7922 14.0075C97.5143 14.0884 97.2794 14.2248 97.0849 14.4117C96.8879 14.5936 96.7919 14.8411 96.7919 15.1493C96.7919 15.4524 96.9182 15.6949 97.1758 15.8768C97.431 16.0536 97.7644 16.2001 98.1761 16.3213C98.5929 16.4426 99.0501 16.5588 99.5503 16.6649C100.048 16.7659 100.543 16.8947 101.036 17.0488C101.533 17.2054 101.988 17.4176 102.4 17.6854C102.816 17.9481 103.152 18.2966 103.41 18.7261C103.665 19.1504 103.794 19.696 103.794 20.3629C103.794 21.0778 103.647 21.684 103.359 22.1816C103.077 22.6818 102.693 23.0809 102.208 23.384C101.728 23.6871 101.19 23.9094 100.591 24.0508C99.9898 24.1923 99.3835 24.263 98.7723 24.263C97.8755 24.263 97.0369 24.1115 96.2564 23.8083C95.4809 23.5052 94.8545 23.0404 94.3771 22.414C93.8971 21.7825 93.6521 20.9742 93.6395 19.9891H96.3473C96.3802 20.7165 96.6454 21.2495 97.1455 21.5855C97.6431 21.924 98.2191 22.0907 98.8733 22.0907Z" fill="#1F4037"/>
<path d="M118.944 19.8678H121.924C121.646 20.6963 121.219 21.4339 120.641 22.0806C120.06 22.7272 119.37 23.2375 118.57 23.6063C117.774 23.9776 116.915 24.162 115.993 24.162C115.137 24.162 114.331 24.0003 113.578 23.677C112.823 23.3537 112.156 22.9066 111.578 22.3332C111.004 21.7547 110.557 21.0904 110.234 20.3427C109.916 19.5899 109.759 18.7842 109.759 17.9279C109.759 17.0741 109.916 16.2683 110.234 15.513C110.557 14.7603 111.004 14.0959 111.578 13.5225C112.156 12.9441 112.823 12.497 113.578 12.1787C114.331 11.8554 115.137 11.6937 115.993 11.6937C116.915 11.6937 117.772 11.8807 118.56 12.2494C119.353 12.6132 120.04 13.1133 120.621 13.7448C121.207 14.3788 121.634 15.1139 121.904 15.9475H118.933C118.683 15.4019 118.282 14.9725 117.731 14.6542C117.185 14.3384 116.605 14.1793 115.993 14.1793C115.339 14.1793 114.743 14.3511 114.205 14.6946C113.672 15.0331 113.247 15.4827 112.932 16.0485C112.621 16.6093 112.467 17.2357 112.467 17.9279C112.467 18.6149 112.621 19.2414 112.932 19.8072C113.247 20.3679 113.672 20.8176 114.205 21.1611C114.743 21.4996 115.339 21.6663 115.993 21.6663C116.62 21.6663 117.206 21.5021 117.751 21.1712C118.297 20.8353 118.693 20.4008 118.944 19.8678Z" fill="#1F4037"/>
<path d="M132.961 17.9076C132.961 17.2761 132.794 16.6901 132.465 16.1496C132.135 15.6115 131.698 15.1771 131.152 14.8462C130.611 14.5102 130.03 14.341 129.404 14.341C128.783 14.341 128.202 14.5102 127.656 14.8462C127.11 15.1771 126.668 15.6115 126.332 16.1496C126.001 16.6901 125.837 17.2761 125.837 17.9076C125.837 18.5215 126.001 19.105 126.332 19.6556C126.668 20.2012 127.11 20.6433 127.656 20.9792C128.202 21.3177 128.783 21.4844 129.404 21.4844C130.03 21.4844 130.611 21.3177 131.152 20.9792C131.698 20.6433 132.135 20.2012 132.465 19.6556C132.794 19.105 132.961 18.5215 132.961 17.9076ZM135.638 17.9279C135.638 18.7564 135.469 19.5495 135.133 20.3023C134.802 21.0575 134.347 21.7244 133.769 22.3029C133.195 22.8762 132.536 23.3309 131.788 23.6669C131.041 23.9953 130.245 24.162 129.404 24.162C128.568 24.162 127.772 23.9953 127.019 23.6669C126.264 23.3309 125.597 22.8762 125.019 22.3029C124.445 21.7244 123.993 21.0575 123.665 20.3023C123.334 19.5495 123.17 18.7564 123.17 17.9279C123.17 17.0791 123.334 16.2809 123.665 15.5332C123.993 14.7855 124.445 14.1262 125.019 13.5529C125.597 12.9744 126.264 12.5197 127.019 12.1888C127.772 11.8604 128.568 11.6937 129.404 11.6937C130.245 11.6937 131.041 11.8604 131.788 12.1888C132.536 12.5197 133.195 12.9744 133.769 13.5529C134.347 14.1262 134.802 14.7855 135.133 15.5332C135.469 16.2809 135.638 17.0791 135.638 17.9279Z" fill="#1F4037"/>
<path d="M147.014 23.9801H144.346L140.173 16.4224V23.9801H137.506V11.8655H140.173L144.346 19.4232V11.8655H147.014V23.9801Z" fill="#1F4037"/>
<path d="M154.03 22.0907C154.318 22.0907 154.628 22.0477 154.959 21.9593C155.288 21.8734 155.576 21.7244 155.818 21.5147C156.066 21.3076 156.192 21.0247 156.192 20.666C156.192 20.3376 156.063 20.0699 155.808 19.8678C155.55 19.6657 155.215 19.5015 154.798 19.3727C154.378 19.2388 153.924 19.1151 153.434 18.9989C152.941 18.8852 152.446 18.7513 151.948 18.5947C151.448 18.433 150.991 18.2209 150.574 17.9582C150.155 17.6955 149.819 17.3595 149.564 16.9478C149.314 16.531 149.19 16.0031 149.19 15.3615C149.19 14.73 149.316 14.1869 149.574 13.7347C149.837 13.2775 150.183 12.8961 150.615 12.593C151.052 12.2899 151.539 12.065 152.08 11.916C152.618 11.7695 153.161 11.6937 153.707 11.6937C154.54 11.6937 155.318 11.8251 156.041 12.0878C156.768 12.3454 157.359 12.7546 157.819 13.3205C158.276 13.8863 158.516 14.6314 158.536 15.5534H155.96C155.884 14.927 155.662 14.4925 155.293 14.25C154.929 14.0025 154.414 13.8762 153.747 13.8762C153.497 13.8762 153.232 13.9216 152.949 14.0075C152.671 14.0884 152.436 14.2248 152.241 14.4117C152.044 14.5936 151.948 14.8411 151.948 15.1493C151.948 15.4524 152.075 15.6949 152.332 15.8768C152.588 16.0536 152.921 16.2001 153.333 16.3213C153.749 16.4426 154.207 16.5588 154.707 16.6649C155.204 16.7659 155.7 16.8947 156.192 17.0488C156.69 17.2054 157.144 17.4176 157.556 17.6854C157.973 17.9481 158.309 18.2966 158.567 18.7261C158.822 19.1504 158.95 19.696 158.95 20.3629C158.95 21.0778 158.804 21.684 158.516 22.1816C158.233 22.6818 157.849 23.0809 157.364 23.384C156.884 23.6871 156.346 23.9094 155.748 24.0508C155.146 24.1923 154.54 24.263 153.929 24.263C153.032 24.263 152.193 24.1115 151.413 23.8083C150.637 23.5052 150.011 23.0404 149.534 22.414C149.054 21.7825 148.809 20.9742 148.796 19.9891H151.504C151.537 20.7165 151.802 21.2495 152.302 21.5855C152.8 21.924 153.376 22.0907 154.03 22.0907Z" fill="#1F4037"/>
<path d="M167.802 11.8655H170.47V19.2616C170.47 20.8782 170.028 22.1008 169.146 22.9293C168.27 23.7528 167.045 24.162 165.468 24.162C163.885 24.162 162.652 23.7528 161.77 22.9293C160.894 22.1008 160.457 20.8782 160.457 19.2616V11.8655H163.134V18.8675C163.134 19.696 163.296 20.3402 163.619 20.7974C163.948 21.2571 164.564 21.4844 165.468 21.4844C166.378 21.4844 166.994 21.2571 167.317 20.7974C167.641 20.3402 167.802 19.696 167.802 18.8675V11.8655Z" fill="#1F4037"/>
<path d="M172.52 23.9801V11.8655H175.187V21.5552H179.532V23.9801H172.52Z" fill="#1F4037"/>
<path d="M186.55 14.2904V23.9801H183.882V14.2904H180.427V11.8655H190.005V14.2904H186.55Z" fill="#1F4037"/>
<path d="M196.043 22.0907C196.331 22.0907 196.641 22.0477 196.972 21.9593C197.301 21.8734 197.589 21.7244 197.831 21.5147C198.079 21.3076 198.205 21.0247 198.205 20.666C198.205 20.3376 198.076 20.0699 197.821 19.8678C197.563 19.6657 197.227 19.5015 196.811 19.3727C196.391 19.2388 195.937 19.1151 195.447 18.9989C194.954 18.8852 194.459 18.7513 193.961 18.5947C193.461 18.433 193.004 18.2209 192.587 17.9582C192.168 17.6955 191.832 17.3595 191.577 16.9478C191.327 16.531 191.203 16.0031 191.203 15.3615C191.203 14.73 191.329 14.1869 191.587 13.7347C191.85 13.2775 192.196 12.8961 192.628 12.593C193.065 12.2899 193.552 12.065 194.093 11.916C194.631 11.7695 195.174 11.6937 195.719 11.6937C196.553 11.6937 197.331 11.8251 198.053 12.0878C198.781 12.3454 199.372 12.7546 199.832 13.3205C200.289 13.8863 200.529 14.6314 200.549 15.5534H197.973C197.897 14.927 197.675 14.4925 197.306 14.25C196.942 14.0025 196.427 13.8762 195.76 13.8762C195.51 13.8762 195.245 13.9216 194.962 14.0075C194.684 14.0884 194.449 14.2248 194.254 14.4117C194.057 14.5936 193.961 14.8411 193.961 15.1493C193.961 15.4524 194.088 15.6949 194.345 15.8768C194.6 16.0536 194.934 16.2001 195.346 16.3213C195.762 16.4426 196.22 16.5588 196.72 16.6649C197.217 16.7659 197.712 16.8947 198.205 17.0488C198.703 17.2054 199.157 17.4176 199.569 17.6854C199.986 17.9481 200.322 18.2966 200.579 18.7261C200.835 19.1504 200.963 19.696 200.963 20.3629C200.963 21.0778 200.817 21.684 200.529 22.1816C200.246 22.6818 199.862 23.0809 199.377 23.384C198.897 23.6871 198.359 23.9094 197.76 24.0508C197.159 24.1923 196.553 24.263 195.942 24.263C195.045 24.263 194.206 24.1115 193.426 23.8083C192.65 23.5052 192.024 23.0404 191.547 22.414C191.067 21.7825 190.822 20.9742 190.809 19.9891H193.517C193.55 20.7165 193.815 21.2495 194.315 21.5855C194.813 21.924 195.389 22.0907 196.043 22.0907Z" fill="#1F4037"/>
</g>
<defs>
<clipPath id="clip0_1_324">
<rect width="210" height="36.8591" fill="white"/>
</clipPath>
</defs>
</svg>
