<svg width="50" height="50" viewBox="0 0 50 50" fill="none" xmlns="http://www.w3.org/2000/svg">
<rect width="50" height="50" rx="25" fill="#EDF1EE"/>
<path d="M25.3333 25.5C28.2328 25.5 30.5833 23.1495 30.5833 20.25C30.5833 17.3505 28.2328 15 25.3333 15C22.4338 15 20.0833 17.3505 20.0833 20.25C20.0833 23.1495 22.4338 25.5 25.3333 25.5Z" fill="#EDF1EE"/>
<path d="M34.6667 36C34.6667 34.3718 34.6667 33.5578 34.4657 32.8953C34.0133 31.4039 32.8461 30.2367 31.3547 29.7843C30.6922 29.5833 29.8782 29.5833 28.25 29.5833H22.4167C20.7885 29.5833 19.9744 29.5833 19.312 29.7843C17.8205 30.2367 16.6534 31.4039 16.2009 32.8953C16 33.5578 16 34.3718 16 36M30.5833 20.25C30.5833 23.1495 28.2328 25.5 25.3333 25.5C22.4338 25.5 20.0833 23.1495 20.0833 20.25C20.0833 17.3505 22.4338 15 25.3333 15C28.2328 15 30.5833 17.3505 30.5833 20.25Z" stroke="#1F4037" stroke-width="2.4" stroke-linecap="round" stroke-linejoin="round"/>
</svg>
