<svg width="50" height="50" viewBox="0 0 50 50" fill="none" xmlns="http://www.w3.org/2000/svg">
<rect width="50" height="50" rx="25" fill="#EDF1EE"/>
<path d="M20.2 35.6V18.8C20.2 17.684 20.2 17.1261 20.3227 16.6683C20.6555 15.4259 21.6259 14.4555 22.8683 14.1227C23.3261 14 23.884 14 25 14C26.116 14 26.6739 14 27.1317 14.1227C28.3741 14.4555 29.3445 15.4259 29.6773 16.6683C29.8 17.1261 29.8 17.684 29.8 18.8V35.6M16.84 35.6H33.16C34.5041 35.6 35.1762 35.6 35.6896 35.3384C36.1412 35.1083 36.5083 34.7412 36.7384 34.2896C37 33.7762 37 33.1041 37 31.76V22.64C37 21.2959 37 20.6238 36.7384 20.1104C36.5083 19.6588 36.1412 19.2917 35.6896 19.0616C35.1762 18.8 34.5041 18.8 33.16 18.8H16.84C15.4959 18.8 14.8238 18.8 14.3104 19.0616C13.8588 19.2917 13.4917 19.6588 13.2616 20.1104C13 20.6238 13 21.2959 13 22.64V31.76C13 33.1041 13 33.7762 13.2616 34.2896C13.4917 34.7412 13.8588 35.1083 14.3104 35.3384C14.8238 35.6 15.4959 35.6 16.84 35.6Z" stroke="#1F4037" stroke-width="2.4" stroke-linecap="round" stroke-linejoin="round"/>
</svg>
