<svg width="50" height="50" viewBox="0 0 50 50" fill="none" xmlns="http://www.w3.org/2000/svg">
<rect width="50" height="50" rx="25" fill="#EDF1EE"/>
<path d="M29.8 32L32.2 34.4L37 29.6M25 28.4H20.2C17.9635 28.4 16.8452 28.4 15.9631 28.7654C14.787 29.2525 13.8525 30.187 13.3654 31.3631C13 32.2452 13 33.3635 13 35.6M29.2 14.3489C30.9591 15.061 32.2 16.7856 32.2 18.8C32.2 20.8144 30.9591 22.539 29.2 23.2511M26.8 18.8C26.8 21.451 24.651 23.6 22 23.6C19.349 23.6 17.2 21.451 17.2 18.8C17.2 16.149 19.349 14 22 14C24.651 14 26.8 16.149 26.8 18.8Z" stroke="#1F4037" stroke-width="2.4" stroke-linecap="round" stroke-linejoin="round"/>
</svg>
