<svg width="516" height="32" viewBox="0 0 516 32" fill="none" xmlns="http://www.w3.org/2000/svg">
<path fill-rule="evenodd" clip-rule="evenodd" d="M171.065 2.82672C114.163 2.16363 57.0291 4.58691 1.95269 14.7623C0.970037 14.9432 0.562103 15.2988 0.481704 15.3802C0.01122 15.8625 -0.0394889 16.3748 0.020066 16.7968C0.055799 17.053 0.297101 18.135 1.61624 18.2465C2.52743 18.3219 8.995 17.7944 11.4903 17.6588C23.2376 17.0229 34.9611 16.1156 46.6785 15.0667C73.2459 12.6977 99.7776 10.6482 126.387 8.78247C141.326 7.73358 156.271 6.86551 171.208 6.1542C207.14 6.57918 242.983 8.23693 278.156 9.9489C264.176 10.82 251.33 11.7031 240.679 12.2757C222.717 13.2402 204.788 14.3795 186.862 15.8805C177.652 16.6491 168.453 17.484 159.261 18.4696C158.243 18.5811 155.923 18.6957 154.8 18.8313C154.324 18.8855 153.979 18.973 153.824 19.0332C152.853 19.413 152.731 20.1906 152.719 20.5824C152.713 20.8205 152.793 22.1196 154.431 22.3728C230.581 34.2541 310.027 20.4317 386.451 31.9816C387.348 32.1172 388.187 31.4903 388.321 30.58C388.455 29.6728 387.836 28.8228 386.937 28.6872C314.958 17.8095 240.297 29.4407 168.227 20.9019C174.525 20.284 180.826 19.7264 187.133 19.199C205.026 17.701 222.922 16.5647 240.854 15.6002C258.899 14.6327 283.293 12.7429 308.827 11.5524C330.741 12.7881 352.642 14.1746 374.558 15.35C383.804 15.8444 393.053 16.2543 402.296 16.7576C406.095 16.9626 415.871 17.8216 417.289 17.5021C418.39 17.2519 418.655 16.4532 418.721 16.0523C418.789 15.6183 418.748 15.0788 418.248 14.5634C418.093 14.4006 417.628 14.0631 416.675 13.7858C390.903 6.31396 348.702 6.4315 309.179 8.23691C300.677 7.75467 292.176 7.29653 283.671 6.88361C264.203 5.93419 244.52 4.98173 224.724 4.23124C280.512 2.83573 336.327 3.23662 392.156 4.24632C415.597 4.6713 478.782 7.23325 503.667 9.4968C503.363 9.81327 503.185 10.2533 503.206 10.7325C503.247 11.6488 504.018 12.3601 504.927 12.3179C510.06 12.0768 513.029 11.7694 514.205 11.4529C514.938 11.257 515.337 10.9435 515.522 10.7386C515.974 10.2443 516.057 9.71379 515.968 9.21044C515.912 8.89698 515.772 8.55339 515.45 8.23691C515.236 8.0199 514.712 7.68837 513.818 7.46232C504.036 4.99985 420.126 1.42215 392.216 0.915789C318.46 -0.416418 244.734 -0.687656 171.065 2.82672ZM396.724 13.1287C382.312 11.1485 365.416 10.4522 347.791 10.4974C356.769 11.0249 365.75 11.5403 374.734 12.0226C382.062 12.4174 389.393 12.755 396.724 13.1287ZM103.089 7.12777C84.1802 8.53834 65.2923 10.0634 46.3896 11.7513C44.2069 11.9442 42.0272 12.1341 39.8445 12.321C60.7483 9.72888 81.8695 8.0802 103.089 7.12777Z" fill="#1F4037"/>
</svg>
