<svg width="50" height="50" viewBox="0 0 50 50" fill="none" xmlns="http://www.w3.org/2000/svg">
<rect width="50" height="50" rx="25" fill="#EDF1EE"/>
<path d="M29.8 31.6L32.2 34L37 29.2M37 22H13M37 24.4V19.84C37 18.4959 37 17.8238 36.7384 17.3104C36.5083 16.8588 36.1412 16.4917 35.6896 16.2616C35.1762 16 34.5041 16 33.16 16H16.84C15.4959 16 14.8238 16 14.3104 16.2616C13.8588 16.4917 13.4917 16.8588 13.2616 17.3104C13 17.8238 13 18.4959 13 19.84V28.96C13 30.3041 13 30.9762 13.2616 31.4896C13.4917 31.9412 13.8588 32.3083 14.3104 32.5384C14.8238 32.8 15.4959 32.8 16.84 32.8H25" stroke="#1F4037" stroke-width="2.4" stroke-linecap="round" stroke-linejoin="round"/>
</svg>
